# xmcd
#
# Track frame offsets: 
#        150
#        13284
#        23415
#        37250
#        51233
#        78482
#        93200
#        109384
#        131596
#        148265
#        167259
#        187856
#        204316
#        218111
#
# Disc length: 3150 seconds
#
# Revision: 0
# Processed by: cddbd v1.5.1PL2 Copyright (c) Steve Scherf et al.
# Submitted via: ExactAudioCopy v0.95b4
#
DISCID=bd0c4c0e
DTITLE=Ta Jana z Velké Ohrady - Pod prahem
DYEAR=2006
DGENRE=Chanson
TTITLE0=A co kdyz?
TTITLE1=Obihacka
TTITLE2=Alkoholuv den
TTITLE3=Dobovy blues
TTITLE4=O cem se nemluvi
TTITLE5=Ze zivota
TTITLE6=Singl
TTITLE7=Vekoun
TTITLE8=Dva obri
TTITLE9=N.I.M.B.
TTITLE10=Play Off
TTITLE11=Z rozmyslu a ze soucitu
TTITLE12=Neco mne je 2006
TTITLE13=Ja chci!
EXTD=
EXTT0=
EXTT1=
EXTT2=
EXTT3=
EXTT4=
EXTT5=
EXTT6=
EXTT7=
EXTT8=
EXTT9=
EXTT10=
EXTT11=
EXTT12=
EXTT13=
PLAYORDER=
